<mxfile host="www.draw.io" modified="2019-10-26T22:21:33.136Z" agent="Mozilla/5.0 (Macintosh; Intel Mac OS X 10_14_4) AppleWebKit/537.36 (KHTML, like Gecko) Chrome/77.0.3865.120 Safari/537.36" etag="qq2Yeshg1L-05Dbx2sQ2" version="12.1.7" type="github" pages="1">
  <diagram id="nRRkMeWTna66y5VhuN1E" name="Page-1">
    <mxGraphModel dx="2022" dy="759" grid="1" gridSize="10" guides="1" tooltips="1" connect="1" arrows="1" fold="1" page="1" pageScale="1" pageWidth="850" pageHeight="1100" math="0" shadow="0">
      <root>
        <mxCell id="0"/>
        <mxCell id="1" parent="0"/>
        <mxCell id="NaHTyygX9rh7fK3Wwqsh-1" value="&lt;h2&gt;Capacities:&lt;/h2&gt;&lt;p&gt;&lt;/p&gt;&lt;ul&gt;&lt;li&gt;Creation of new assemblages&lt;/li&gt;&lt;/ul&gt;&lt;p&gt;&lt;/p&gt;" style="rounded=1;whiteSpace=wrap;html=1;container=1;" vertex="1" parent="1">
          <mxGeometry x="230" y="80" width="280" height="220" as="geometry"/>
        </mxCell>
        <mxCell id="NaHTyygX9rh7fK3Wwqsh-17" value="&lt;h3&gt;Free&lt;/h3&gt;&lt;h3&gt;Paid&lt;/h3&gt;" style="rounded=1;whiteSpace=wrap;html=1;" vertex="1" parent="NaHTyygX9rh7fK3Wwqsh-1">
          <mxGeometry x="35" y="23" width="210" height="60" as="geometry"/>
        </mxCell>
        <mxCell id="NaHTyygX9rh7fK3Wwqsh-2" value="&lt;h2 style=&quot;white-space: normal&quot;&gt;Capacities:&lt;/h2&gt;&lt;p style=&quot;white-space: normal&quot;&gt;&lt;/p&gt;&lt;ul style=&quot;white-space: normal&quot;&gt;&lt;li&gt;Invitation of new monads to the assemblage&lt;/li&gt;&lt;/ul&gt;" style="rounded=1;whiteSpace=wrap;html=1;container=1;" vertex="1" parent="1">
          <mxGeometry x="230" y="370" width="260" height="220" as="geometry"/>
        </mxCell>
        <mxCell id="NaHTyygX9rh7fK3Wwqsh-18" value="&lt;h3&gt;Venue&lt;/h3&gt;&lt;h3&gt;Artist&lt;/h3&gt;" style="rounded=1;whiteSpace=wrap;html=1;" vertex="1" parent="NaHTyygX9rh7fK3Wwqsh-2">
          <mxGeometry x="70" y="20" width="120" height="60" as="geometry"/>
        </mxCell>
        <mxCell id="NaHTyygX9rh7fK3Wwqsh-3" value="&lt;h1&gt;monad&lt;/h1&gt;" style="text;html=1;resizable=0;points=[];autosize=1;align=left;verticalAlign=top;spacingTop=-4;" vertex="1" parent="1">
          <mxGeometry x="680" y="170" width="90" height="50" as="geometry"/>
        </mxCell>
        <mxCell id="NaHTyygX9rh7fK3Wwqsh-4" value="&lt;h1&gt;assemblage&lt;/h1&gt;" style="text;html=1;resizable=0;points=[];autosize=1;align=left;verticalAlign=top;spacingTop=-4;" vertex="1" parent="1">
          <mxGeometry x="620" y="440" width="150" height="50" as="geometry"/>
        </mxCell>
        <mxCell id="NaHTyygX9rh7fK3Wwqsh-5" value="" style="endArrow=classic;html=1;" edge="1" parent="1" source="NaHTyygX9rh7fK3Wwqsh-3" target="NaHTyygX9rh7fK3Wwqsh-1">
          <mxGeometry width="50" height="50" relative="1" as="geometry">
            <mxPoint x="20" y="460" as="sourcePoint"/>
            <mxPoint x="70" y="410" as="targetPoint"/>
          </mxGeometry>
        </mxCell>
        <mxCell id="NaHTyygX9rh7fK3Wwqsh-6" value="" style="endArrow=classic;html=1;" edge="1" parent="1" source="NaHTyygX9rh7fK3Wwqsh-4" target="NaHTyygX9rh7fK3Wwqsh-2">
          <mxGeometry width="50" height="50" relative="1" as="geometry">
            <mxPoint x="20" y="460" as="sourcePoint"/>
            <mxPoint x="70" y="410" as="targetPoint"/>
          </mxGeometry>
        </mxCell>
        <mxCell id="NaHTyygX9rh7fK3Wwqsh-9" value="" style="strokeWidth=2;html=1;shape=mxgraph.flowchart.annotation_2;align=left;labelPosition=right;pointerEvents=1;" vertex="1" parent="1">
          <mxGeometry x="170" y="180" width="50" height="330" as="geometry"/>
        </mxCell>
        <mxCell id="NaHTyygX9rh7fK3Wwqsh-10" value="&lt;h1&gt;Ontology&lt;/h1&gt;&lt;p&gt;There are two diachronous genera&amp;nbsp;in this world, representing three species. Monads represent individual users, whilst assemblages represent different higher-order collectives that monads can take part in. Regardless of genera, each species affords common capacities and properties:&lt;/p&gt;&lt;h2&gt;Intergeneric Capacities:&lt;/h2&gt;&lt;p&gt;&lt;/p&gt;&lt;ul&gt;&lt;li&gt;The ability to communicate with any other species, regardless of genera, via real-time messaging.&amp;nbsp;&lt;/li&gt;&lt;li&gt;The ability to view a stream of events&amp;nbsp;&lt;/li&gt;&lt;/ul&gt;&lt;div&gt;&lt;h2&gt;Intergeneric Properties:&lt;/h2&gt;&lt;p&gt;&lt;/p&gt;&lt;ul&gt;&lt;li&gt;Unique identifier that facilitates communication between species&lt;/li&gt;&lt;/ul&gt;&lt;/div&gt;&lt;p&gt;&lt;/p&gt;" style="text;html=1;strokeColor=none;fillColor=none;spacing=5;spacingTop=-20;whiteSpace=wrap;overflow=hidden;rounded=0;" vertex="1" parent="1">
          <mxGeometry x="-150" y="160" width="290" height="540" as="geometry"/>
        </mxCell>
        <mxCell id="NaHTyygX9rh7fK3Wwqsh-15" value="" style="group" vertex="1" connectable="0" parent="1">
          <mxGeometry x="520" y="260" width="120" height="60" as="geometry"/>
        </mxCell>
        <mxCell id="NaHTyygX9rh7fK3Wwqsh-13" value="" style="endArrow=classic;startArrow=classic;html=1;" edge="1" parent="NaHTyygX9rh7fK3Wwqsh-15" target="NaHTyygX9rh7fK3Wwqsh-3">
          <mxGeometry width="50" height="50" relative="1" as="geometry">
            <mxPoint x="178" y="180" as="sourcePoint"/>
            <mxPoint x="220" y="30" as="targetPoint"/>
          </mxGeometry>
        </mxCell>
        <mxCell id="NaHTyygX9rh7fK3Wwqsh-14" value="composition,&lt;br&gt;decomposition" style="shape=process;whiteSpace=wrap;html=1;backgroundOutline=1;" vertex="1" parent="1">
          <mxGeometry x="650" y="300" width="120" height="60" as="geometry"/>
        </mxCell>
        <mxCell id="NaHTyygX9rh7fK3Wwqsh-16" value="Text" style="text;html=1;resizable=0;points=[];autosize=1;align=left;verticalAlign=top;spacingTop=-4;" vertex="1" parent="1">
          <mxGeometry x="-234" y="83" width="40" height="20" as="geometry"/>
        </mxCell>
        <mxCell id="NaHTyygX9rh7fK3Wwqsh-20" value="" style="ellipse;shape=cloud;whiteSpace=wrap;html=1;container=1;" vertex="1" parent="1">
          <mxGeometry x="-200" y="500" width="420" height="350" as="geometry"/>
        </mxCell>
        <mxCell id="NaHTyygX9rh7fK3Wwqsh-22" value="&lt;span style=&quot;text-align: left&quot;&gt;&lt;font style=&quot;font-size: 15px&quot;&gt;Question::: Is it primarily a user-based flow where the user has specific privileges&amp;nbsp;on different pages based on assemblage membership, OR is it primarily a two-stage flow wherein the user has to switch to an assemblage profile in order to exercise the privileges of that assemblage?&amp;nbsp;&amp;nbsp;&lt;/font&gt;&lt;/span&gt;" style="text;html=1;strokeColor=none;fillColor=none;align=center;verticalAlign=middle;whiteSpace=wrap;rounded=0;" vertex="1" parent="NaHTyygX9rh7fK3Wwqsh-20">
          <mxGeometry x="102.16216216216216" y="108.62068965517241" width="238.37837837837836" height="144.82758620689654" as="geometry"/>
        </mxCell>
      </root>
    </mxGraphModel>
  </diagram>
</mxfile>
